<svg xmlns="http://www.w3.org/2000/svg"  viewBox="0 0 64 64" width="64px" height="64px"><path fill="#8d6c9f" d="M12,8h-2C9.447,8,9,7.553,9,7s0.447-1,1-1h2c0.553,0,1,0.447,1,1S12.553,8,12,8z"/><path fill="#8d6c9f" d="M12,13h-2c-0.553,0-1-0.447-1-1s0.447-1,1-1h2c0.553,0,1,0.447,1,1S12.553,13,12,13z"/><path fill="#8d6c9f" d="M12,18h-2c-0.553,0-1-0.447-1-1s0.447-1,1-1h2c0.553,0,1,0.447,1,1S12.553,18,12,18z"/><path fill="#8d6c9f" d="M12,23h-2c-0.553,0-1-0.447-1-1s0.447-1,1-1h2c0.553,0,1,0.447,1,1S12.553,23,12,23z"/><path fill="#8d6c9f" d="M12,28h-2c-0.553,0-1-0.447-1-1s0.447-1,1-1h2c0.553,0,1,0.447,1,1S12.553,28,12,28z"/><path fill="#8d6c9f" d="M12,33h-2c-0.553,0-1-0.447-1-1s0.447-1,1-1h2c0.553,0,1,0.447,1,1S12.553,33,12,33z"/><path fill="#8d6c9f" d="M12,38h-2c-0.553,0-1-0.447-1-1s0.447-1,1-1h2c0.553,0,1,0.447,1,1S12.553,38,12,38z"/><path fill="#8d6c9f" d="M12,43h-2c-0.553,0-1-0.447-1-1s0.447-1,1-1h2c0.553,0,1,0.447,1,1S12.553,43,12,43z"/><path fill="#8d6c9f" d="M12,48h-2c-0.553,0-1-0.447-1-1s0.447-1,1-1h2c0.553,0,1,0.447,1,1S12.553,48,12,48z"/><path fill="#8d6c9f" d="M12,53h-2c-0.553,0-1-0.447-1-1s0.447-1,1-1h2c0.553,0,1,0.447,1,1S12.553,53,12,53z"/><path fill="#8d6c9f" d="M12,58h-2c-0.553,0-1-0.447-1-1s0.447-1,1-1h2c0.553,0,1,0.447,1,1S12.553,58,12,58z"/><path fill="#f2494c" d="M48.897,38.187c-0.325,0.358-0.666,0.699-1.024,1.039c-0.276,0.251-0.569,0.502-0.861,0.734 c-0.325,0.269-0.65,0.519-0.991,0.752c-0.179,0.143-0.39,0.269-0.585,0.376c-0.26,0.179-0.504,0.34-0.78,0.484l-0.195,0.107 c-0.754,0.416-1.539,0.765-2.343,1.042c-0.253,0.088-0.51,0.174-0.777,0.247c-0.455,0.143-0.926,0.269-1.413,0.358 c-0.975,0.197-1.966,0.287-2.989,0.287h-5.694c-0.224-0.158-0.46-0.326-0.684-0.485c-0.458-1.112-0.877-2.146-2.036-3.598 c-0.211-0.287-0.487-0.609-0.796-0.949c-1.316-1.451-2.291-2.131-3.2-2.651c-0.244-0.143-0.487-0.269-0.731-0.394 c-0.39-0.215-0.78-0.412-1.202-0.681c-0.764-0.484-1.608-1.164-2.681-2.346c-1.673-1.845-2.209-3.081-2.778-4.317 c-0.455-1.075-0.926-2.131-2.128-3.6V7.791C15.009,6.802,15.737,6,16.634,6h4.208c0.52,0.788,0.812,1.487,1.137,2.167 c0.52,1.254,1.056,2.454,2.729,4.299c1.673,1.845,2.794,2.436,3.932,3.045c1.105,0.591,2.226,1.2,3.883,3.027 c1.673,1.845,2.209,3.081,2.778,4.317c0.52,1.254,1.056,2.454,2.729,4.299c1.673,1.845,2.794,2.436,3.932,3.045 c1.105,0.591,2.226,1.2,3.883,3.027c1.673,1.845,2.209,3.081,2.778,4.317C48.702,37.757,48.8,37.972,48.897,38.187z"/><path fill="#ced9ed" d="M16.008,7.306v48.337h11.257c1.554,0,2.814-1.353,2.814-3.021v-9.063h8.443 c0,0,15.478-1.511,15.478-16.616S45.557,7.306,38.522,7.306H16.008z"/><path fill="#3231c7" d="M20.078,56.948h-5.069v-3.726l0.049,0.054c1.673,1.845,2.794,2.436,3.932,3.045 C19.347,56.501,19.704,56.698,20.078,56.948z"/><path fill="#e0678f" d="M52.77,30.039c-0.092,0.357-0.48,8.676-10.567,12.435c-0.647-0.442-2.567-1.13-3.446-2.099 c-1.588-1.75-2.112-2.923-2.636-4.095c-0.324-0.731-0.647-1.461-1.218-2.328c-0.355-0.51-0.802-1.088-1.387-1.733 c-1.156-1.275-2.035-1.92-2.836-2.396c-0.293-0.187-0.586-0.357-0.879-0.51c-0.216-0.119-0.432-0.221-0.647-0.357 c-0.863-0.493-1.788-1.139-3.036-2.515c-1.588-1.75-2.112-2.923-2.636-4.095c-0.509-1.173-1.033-2.328-2.605-4.061 c-1.588-1.75-2.651-2.328-3.715-2.906c-0.385-0.187-0.755-0.391-1.156-0.663V7.306h14.55h0.002 c1.646,1.842,2.734,2.433,3.821,3.023c1.064,0.561,2.096,1.122,3.684,2.872s2.112,2.906,2.62,4.078 c0.524,1.173,1.033,2.328,2.62,4.078c1.588,1.75,2.667,2.328,3.73,2.906c1.048,0.578,2.112,1.139,3.668,2.872 C51.567,28.089,52.37,29.342,52.77,30.039z"/><path fill="#ed7899" d="M48.45,38.664c-3.744,3.531-6.541,4.895-10.521,4.895c-2.949,0-6.543-0.134-6.651-0.147 c-0.435-1.056-1.348-2.916-2.447-4.294c-0.2-0.272-0.462-0.578-0.755-0.901c-1.248-1.376-2.173-2.022-3.036-2.515 c-0.231-0.136-0.462-0.255-0.694-0.374c-0.37-0.204-0.74-0.391-1.141-0.646c-0.724-0.459-0.678-2.386-1.696-3.507 c-1.588-1.75-2.477-2.94-3.016-4.113c-0.432-1.02-1.346-0.724-2.486-2.117V7.306h5.533c0.493,0.748,0.771,1.41,1.079,2.056 c0.493,1.19,1.002,2.328,2.589,4.078c1.588,1.75,2.651,2.311,3.73,2.889c1.048,0.561,2.112,1.139,3.684,2.872 c1.588,1.75,2.096,2.923,2.636,4.095c0.493,1.19,1.002,2.328,2.589,4.078c1.588,1.75,2.651,2.311,3.73,2.889 c1.048,0.561,2.112,1.139,3.684,2.872c1.588,1.75,2.096,2.923,2.636,4.095C47.974,37.435,48.358,38.46,48.45,38.664z"/><path fill="#c2cde7" d="M29.709,53.753L29.709,53.753c0,1.793-1.227,3.247-2.74,3.247h-0.171H16.008V37.731 c0.077,0.073-0.092-0.323,0-0.213c0.355,0.42,1.123,1.258,1.37,1.624c0,0,0-0.018,0,0c0.894,1.26,1.111,2.297,1.512,3.284 c0.524,1.242,1.033,2.521,2.62,4.384c1.588,1.881,2.667,2.502,3.73,3.123c1.048,0.603,2.096,1.205,3.668,3.068 C29.263,53.42,29.462,53.406,29.709,53.753z"/><path fill="#6e91ce" d="M30,50.059v2.43v1.133c0,1.668-1.227,3.021-2.74,3.021h0c0,0,1.035-2.652-0.682-4.545 c-0.555-0.595-1.11-1.037-1.927-1.58c-0.802-0.544-1.68-1.241-2.374-2.005c-1.372-1.529-2.559-3.195-3.283-5.183 c-0.154-0.425-0.293-0.833-0.416-1.241c-0.185-0.527-0.355-1.02-0.586-1.512c-0.2-0.425-1.416-1.669-1.694-2.06 c0.709,0.629,1.57,0.904,2.172,1.703c0.586,0.782,1.064,1.716,1.541,2.515c0.062,0.102,0.108,0.187,0.185,0.272 c0.925,1.427,2.204,2.583,3.514,3.518c0.062,0.034,0.108,0.085,0.17,0.102c0.647,0.442,1.295,0.748,2.05,1.037 c0.817,0.289,1.865,0.782,2.744,1.393C29.152,49.379,29.584,49.719,30,50.059z"/><path fill="#6e91ce" d="M53,26.943c-0.015,0.357,0,3.5-0.87,5.955l-0.352-0.584L50.9,31.056l-1.788-2.413 c-0.555-0.765-1.11-1.41-1.803-1.954c-0.663-0.578-1.634-1.122-2.528-1.92c-0.879-0.765-1.603-1.648-2.266-2.549 c-0.647-0.901-1.248-1.886-1.695-2.957c-0.293-0.714-0.493-1.41-0.724-2.073c-0.108-0.34-0.231-0.68-0.37-1.003 c-0.416-0.952-0.807-1.869-1.423-2.719c0.771,0.68,1.346,1.444,1.978,2.345c0.509,0.731,0.925,1.529,1.356,2.243 c0.108,0.17,0.2,0.323,0.308,0.476c1.033,1.444,2.451,2.736,3.869,3.603c0.139,0.085,0.262,0.153,0.385,0.221 c0.771,0.425,1.665,0.68,2.713,1.19c1.048,0.51,2.05,1.241,2.913,1.988C52.256,25.924,53,26.943,53,26.943z"/><path fill="#6e91ce" d="M49.832,37.141c-0.178,0.257-1.761,1.977-3.107,3.067L46.3,39.166 c-0.315-0.891-0.521-1.495-0.918-2.175c-0.356-0.665-0.863-1.359-1.356-1.964c-0.521-0.619-1.028-1.118-1.685-1.586 c-0.644-0.453-1.521-0.982-2.233-1.677c-0.712-0.68-1.302-1.42-1.85-2.19c-0.548-0.77-1.055-1.616-1.411-2.538 c-0.192-0.529-0.356-1.042-0.521-1.526c-0.123-0.363-0.42-0.781-0.584-1.128c-0.37-0.816-0.585-1.679-1.12-2.404 c0.658,0.589,1.169,1.418,1.703,2.173c0.452,0.634,0.836,1.375,1.206,2.024c0.069,0.121,0.123,0.227,0.192,0.332 c0.904,1.405,2.233,2.613,3.549,3.459c0.069,0.045,0.137,0.091,0.219,0.121c0.589,0.347,1.219,0.574,1.987,0.906 c0.863,0.363,1.754,0.906,2.521,1.526c0.754,0.634,1.452,1.269,2.137,2.069C48.753,35.284,49.421,36.401,49.832,37.141z"/><path fill="#e0678f" d="M37.276,40.016c-1.473-1.624-2.455-2.165-3.451-2.691c-0.996-0.541-1.22-1.629-2.708-3.269 c-1.473-1.624-2.493-4.144-2.969-5.242c-0.491-1.099-0.601-1.749-2.089-3.388c-1.473-1.624-2.455-2.165-3.451-2.691 c-0.996-0.541-2.326-1.165-3.813-2.805c-1.473-1.624-2.256-2.61-2.732-3.708c-0.289-0.653-0.548-1.509-1.053-2.273v12.75 c0.708,0.557,1.27,0.833,1.862,1.167c0.939,0.478,1.575,1.432,2.875,2.817l0.043,0.048c0.087,0.064,0.188,0.175,0.289,0.287 c1.487,1.64,2.223,4.303,2.714,5.417c0.477,1.083,0.968,2.181,2.441,3.805c1.487,1.64,2.484,2.165,3.48,2.722 c0.39,0.191,0.755,0.899,1.159,1.154c0,0,2.856,0.223,5.925,0.142c1.251-0.033,2.558,0.032,3.761-0.092 C39.153,43.385,38.273,41.115,37.276,40.016z"/><path fill="#85cbf8" d="M34.482,44L29,43.931v0.238c-0.216-0.17-0.462-0.34-0.724-0.51c-0.802-0.544-1.68-1.241-2.374-2.005 c-1.372-1.529-2.559-3.195-3.283-5.183c-0.108-0.289-0.2-0.578-0.293-0.85c-0.216-0.663-0.432-1.292-0.709-1.903 c-0.308-0.646-0.678-1.275-1.079-1.869l-0.046-0.051c-0.108-0.187-0.247-0.357-0.37-0.544c0.709,0.629,1.372,1.309,1.973,2.107 c0.586,0.782,1.064,1.716,1.541,2.515c0.154,0.272,0.339,0.527,0.524,0.765c0.894,1.207,2.019,2.192,3.175,3.025 c0.2,0.136,0.416,0.272,0.617,0.391c0.509,0.289,1.033,0.527,1.603,0.748c0.817,0.289,1.865,0.782,2.744,1.393 C33.069,42.724,34.674,44.096,34.482,44z"/><path fill="#85cbf8" d="M43.585,41.995c-0.663,0.357-1.356,0.68-2.065,0.935c-0.293,0.102-0.586,0.204-0.894,0.289 c-0.432,0.136-0.879,0.255-1.341,0.34c-0.108-0.204-0.216-0.408-0.324-0.595c-0.478-0.867-0.863-1.444-1.464-2.192 c-0.555-0.714-1.125-1.292-1.834-1.818c-0.709-0.51-1.711-1.139-2.512-1.92c-0.817-0.782-1.495-1.631-2.112-2.498 c-0.632-0.884-1.202-1.869-1.603-2.906c-0.247-0.629-0.432-1.241-0.647-1.835c-0.123-0.374-0.262-0.748-0.432-1.105 c-0.401-0.935-0.956-1.801-1.557-2.634c0.755,0.663,1.464,1.41,2.081,2.26c0.555,0.748,0.986,1.614,1.433,2.345 c0.062,0.102,0.123,0.204,0.185,0.306c1.064,1.563,2.559,2.906,4.038,3.824c0.015,0,0.015,0.017,0.031,0.017 c0.755,0.459,1.511,0.714,2.512,1.139c1.002,0.425,2.019,1.088,2.882,1.784c0.848,0.646,1.742,1.648,2.374,2.515 C42.784,40.823,43.2,41.383,43.585,41.995z"/><path fill="#b11e93" d="M52.342,16.214c-1.386-3.495-3.221-6.116-6.203-7.975c0.845,1.684,1.236,3.063,3.397,5.445 C50.721,14.992,51.513,15.73,52.342,16.214z"/><path fill="#8d6c9f" d="M27,58H16c-0.553,0-1-0.447-1-1V7c0-0.553,0.447-1,1-1h19.818c0.245-0.021,8.008-0.578,13.635,4.616 C53.134,14.014,55,19.035,55,25.543c0,5.648-1.713,10.181-5.091,13.474C47.006,41.846,41.375,45.175,31,45.02V54 C31,56.056,29.056,58,27,58z M17,56h10c0.953,0,2-1.047,2-2V44c0-0.553,0.447-1,1-1c0.09,0,0.227,0.003,0.404,0.008 c10.117,0.275,15.422-2.805,18.108-5.424C51.49,34.683,53,30.631,53,25.543c0-5.918-1.646-10.441-4.89-13.445 c-4.974-4.603-12.139-4.105-12.214-4.101L17,8V56z"/></svg>